
<svg width="202" height="195" viewBox="0 0 202 195" fill="none" xmlns="http://www.w3.org/2000/svg">
<path d="M0 49C0 21.938 21.938 0 49 0H153C180.062 0 202 21.938 202 49V146C202 173.062 180.062 195 153 195H49C21.938 195 0 173.062 0 146V49Z" fill="black"/>
<g filter="url(#filter0_d_271_179)">
<path d="M155.545 136.963C145.565 128.661 125.147 122.992 101.537 122.992C77.9377 122.992 57.4739 128.693 47.4895 136.989C39.3622 130.242 39.6453 123.02 44.0676 117.463C57.3324 109.883 78.1433 105 101.537 105C124.931 105 145.738 109.883 159.002 117.463C163.713 123.499 163.146 130.608 155.545 136.963Z" fill="#CCCCCC"/>
</g>
<g filter="url(#filter1_d_271_179)">
<path d="M101.5 150.993C134.913 150.993 162 139.572 162 125.483C162 122.675 160.99 119.99 159.003 117.464C168.447 122.869 174 129.632 174 136.987C174 154.667 141.541 169 101.5 169C61.4594 169 29 154.667 29 136.987C29 129.63 34.6185 122.87 44.0684 117.463C42.0827 119.989 41 122.676 41 125.483C41 139.572 68.0868 150.993 101.5 150.993Z" fill="white"/>
</g>
<g clip-path="url(#clip0_271_179)">
<path d="M54.8278 78.0146L100.641 123.828L147.656 76.8134" stroke="white" stroke-width="16"/>
<path d="M54.8239 34.3826L100.009 80.8153L147.659 34.4452" stroke="white" stroke-width="16"/>
</g>
<defs>
<filter id="filter0_d_271_179" x="36.9978" y="105" width="129.017" height="39.9895" filterUnits="userSpaceOnUse" color-interpolation-filters="sRGB">
<feFlood flood-opacity="0" result="BackgroundImageFix"/>
<feColorMatrix in="SourceAlpha" type="matrix" values="0 0 0 0 0 0 0 0 0 0 0 0 0 0 0 0 0 0 127 0" result="hardAlpha"/>
<feOffset dy="4"/>
<feGaussianBlur stdDeviation="2"/>
<feComposite in2="hardAlpha" operator="out"/>
<feColorMatrix type="matrix" values="0 0 0 0 0 0 0 0 0 0 0 0 0 0 0 0 0 0 0.25 0"/>
<feBlend mode="normal" in2="BackgroundImageFix" result="effect1_dropShadow_271_179"/>
<feBlend mode="normal" in="SourceGraphic" in2="effect1_dropShadow_271_179" result="shape"/>
</filter>
<filter id="filter1_d_271_179" x="25" y="117.463" width="153" height="59.5369" filterUnits="userSpaceOnUse" color-interpolation-filters="sRGB">
<feFlood flood-opacity="0" result="BackgroundImageFix"/>
<feColorMatrix in="SourceAlpha" type="matrix" values="0 0 0 0 0 0 0 0 0 0 0 0 0 0 0 0 0 0 127 0" result="hardAlpha"/>
<feOffset dy="4"/>
<feGaussianBlur stdDeviation="2"/>
<feComposite in2="hardAlpha" operator="out"/>
<feColorMatrix type="matrix" values="0 0 0 0 0 0 0 0 0 0 0 0 0 0 0 0 0 0 0.25 0"/>
<feBlend mode="normal" in2="BackgroundImageFix" result="effect1_dropShadow_271_179"/>
<feBlend mode="normal" in="SourceGraphic" in2="effect1_dropShadow_271_179" result="shape"/>
</filter>
<clipPath id="clip0_271_179">
<rect width="105" height="108" fill="white" transform="translate(48.9139 28)"/>
</clipPath>
</defs>
</svg>
